<?xml version="1.0" encoding="UTF-8" standalone="no"?>
<svg  xmlns="http://www.w3.org/2000/svg"
      version="1.0" width="64px" height="64px" viewBox="0 0 128 128"
     xml:space="preserve"><g><path d="M59.6 0h8v40h-8V0z" fill="#1641a8" fill-opacity="1"/><path d="M59.6 0h8v40h-8V0z"
                                                                                                 fill-opacity="0.2"
                                                                                                 transform="rotate(30 64 64)"/><path
        d="M59.6 0h8v40h-8V0z" fill="red" fill-opacity="1" transform="rotate(60 64 64)"/><path
        d="M59.6 0h8v40h-8V0z" fill="#d0d9ee" fill-opacity="1" transform="rotate(90 64 64)"/><path
        d="M59.6 0h8v40h-8V0z" fill="#d0d9ee" fill-opacity="1" transform="rotate(120 64 64)"/><path
        d="M59.6 0h8v40h-8V0z" fill="#b9c6e5" fill-opacity="1" transform="rotate(150 64 64)"/><path
        d="M59.6 0h8v40h-8V0z" fill="#a2b3dc" fill-opacity="1" transform="rotate(180 64 64)"/><path
        d="M59.6 0h8v40h-8V0z" fill="#8aa0d3" fill-opacity="1" transform="rotate(210 64 64)"/><path
        d="M59.6 0h8v40h-8V0z" fill="#738dcb" fill-opacity="1" transform="rotate(240 64 64)"/><path
        d="M59.6 0h8v40h-8V0z" fill="#5b7ac2" fill-opacity="1" transform="rotate(270 64 64)"/><path
        d="M59.6 0h8v40h-8V0z" fill="#4567b9" fill-opacity="1" transform="rotate(300 64 64)"/><path
        d="M59.6 0h8v40h-8V0z" fill="#2d54b1" fill-opacity="1" transform="rotate(330 64 64)"/>
    <animateTransform
            attributeName="transform" type="rotate"
            values="0 64 64;30 64 64;60 64 64;90 64 64;120 64 64;150 64 64;180 64 64;210 64 64;240 64 64;270 64 64;300 64 64;330 64 64" dur="1080ms" repeatCount="indefinite">

    </animateTransform></g></svg>